<svg viewBox="0 0 800 800" xmlns="http://www.w3.org/2000/svg">
  <rect width="800" height="800" fill="#FAFAF8"/>
  <defs>
    <linearGradient id="lpCover" x1="0" y1="0" x2="0" y2="1">
      <stop offset="0%" stop-color="#1A8DC2"/>
      <stop offset="55%" stop-color="#0E6FA0"/>
      <stop offset="100%" stop-color="#054A70"/>
    </linearGradient>
    <linearGradient id="lpSpine" x1="0" y1="0" x2="1" y2="0">
      <stop offset="0%" stop-color="#073D58"/>
      <stop offset="100%" stop-color="#0E6FA0"/>
    </linearGradient>
    <radialGradient id="lpShadow" cx="0.5" cy="0.5" r="0.5">
      <stop offset="0%" stop-color="#000000" stop-opacity="0.18"/>
      <stop offset="100%" stop-color="#000000" stop-opacity="0"/>
    </radialGradient>
  </defs>
  <ellipse cx="400" cy="720" rx="200" ry="12" fill="url(#lpShadow)"/>
  <path d="M 250,180 L 270,160 L 270,690 L 250,710 Z" fill="url(#lpSpine)"/>
  <rect x="270" y="160" width="290" height="530" fill="url(#lpCover)" stroke="#031F30" stroke-width="0.6"/>
  <path d="M 560,160 L 580,170 L 580,700 L 560,690 Z" fill="#073D58"/>
  <rect x="296" y="195" width="240" height="50" fill="#F2C144"/>
  <text x="416" y="227" font-family="Inter, sans-serif" font-weight="900" font-size="20" letter-spacing="1" fill="#0C2830" text-anchor="middle">Lonely Planet</text>
  <g transform="translate(416, 350)">
    <text font-family="'Playfair Display', Georgia, serif" font-weight="800" font-size="62" letter-spacing="-1" fill="#FFFFFF" text-anchor="middle">Costa</text>
    <text y="64" font-family="'Playfair Display', Georgia, serif" font-weight="800" font-size="62" letter-spacing="-1" fill="#FFFFFF" text-anchor="middle">Rica</text>
  </g>
  <line x1="316" y1="450" x2="516" y2="450" stroke="#F2C144" stroke-width="1.2"/>
  <g transform="translate(416, 528)" fill="#F2C144" opacity="0.95">
    <path d="M -78,12 Q -50,-20 -20,-8 Q -8,2 6,-2 Q 28,-18 50,-6 Q 70,8 85,12 L 90,28 L -82,28 Z"/>
    <path d="M -30,-8 Q -22,-22 -14,-18 L -12,-8 Z" fill="#9FC8D0"/>
  </g>
  <line x1="346" y1="585" x2="486" y2="585" stroke="#F2C144" stroke-width="0.5"/>
  <text x="416" y="610" font-family="Inter, sans-serif" font-weight="500" font-size="9" font-style="italic" letter-spacing="1.5" fill="#FFFFFF" text-anchor="middle">From Nicoya's Blue Zone</text>
  <text x="416" y="626" font-family="Inter, sans-serif" font-weight="500" font-size="9" font-style="italic" letter-spacing="1.5" fill="#FFFFFF" text-anchor="middle">to Arenal's lava fields</text>
  <text x="416" y="664" font-family="Inter, sans-serif" font-weight="700" font-size="9" letter-spacing="3.5" fill="#F2C144" text-anchor="middle">15TH EDITION</text>
</svg>
